<svg width="28" height="28" viewBox="0 0 28 28" fill="none" xmlns="http://www.w3.org/2000/svg">
<path d="M6.125 13.125H23.625C23.8571 13.125 24.0796 13.2172 24.2437 13.3813C24.4078 13.5454 24.5 13.7679 24.5 14C24.5 14.2321 24.4078 14.4546 24.2437 14.6187C24.0796 14.7828 23.8571 14.875 23.625 14.875H6.125C5.89294 14.875 5.67038 14.7828 5.50628 14.6187C5.34219 14.4546 5.25 14.2321 5.25 14C5.25 13.7679 5.34219 13.5454 5.50628 13.3813C5.67038 13.2172 5.89294 13.125 6.125 13.125Z" fill="#545454"/>
<path d="M6.48735 14L13.7446 21.2555C13.9089 21.4198 14.0012 21.6427 14.0012 21.875C14.0012 22.1074 13.9089 22.3302 13.7446 22.4945C13.5803 22.6588 13.3575 22.7511 13.1251 22.7511C12.8927 22.7511 12.6699 22.6588 12.5056 22.4945L4.6306 14.6195C4.54911 14.5382 4.48446 14.4417 4.44035 14.3354C4.39624 14.2291 4.37354 14.1151 4.37354 14C4.37354 13.8849 4.39624 13.771 4.44035 13.6646C4.48446 13.5583 4.54911 13.4618 4.6306 13.3805L12.5056 5.50551C12.6699 5.3412 12.8927 5.2489 13.1251 5.2489C13.3575 5.2489 13.5803 5.3412 13.7446 5.50551C13.9089 5.66981 14.0012 5.89265 14.0012 6.12501C14.0012 6.35736 13.9089 6.58021 13.7446 6.74451L6.48735 14Z" fill="#545454"/>
</svg>
